90_lb_Static
version=1
nRows=22
nColumns=28
inDegrees=yes
endheader
time	ground_force1_vx	ground_force1_vy	ground_force1_vz	ground_force1_px	ground_force1_py	ground_force1_pz	ground_torque1_x	ground_torque1_y	ground_torque1_z	ground_force3_vx	ground_force3_vy	ground_force3_vz	ground_force3_px	ground_force3_py	ground_force3_pz	ground_torque3_x	ground_torque3_y	ground_torque3_z	ground_force2_vx	ground_force2_vy	ground_force2_vz	ground_force2_px	ground_force2_py	ground_force2_pz	ground_torque2_x	ground_torque2_y	ground_torque2_z
0.785000	-0.198469	0.387674	0.512138	-0.203000	0.000000	0.001500	0.073172	-0.030625	-0.023058	-9.006215	75.846489	-5.159390	-0.235056	0.000000	-0.604733	0.000002	-0.779204	-0.000001	0.149533	0.356685	-0.369870	0.200000	0.000000	-0.300000	-0.142373	0.004707	0.025724	
0.786000	0.359122	0.676812	0.228635	-0.203000	0.000000	0.001500	0.119177	0.018846	-0.021829	-8.787650	74.912949	-5.178865	-0.235595	0.000000	-0.603183	0.000003	-0.643865	-0.000000	-0.069082	0.187082	-0.450031	0.200000	0.000000	-0.300000	-0.097996	0.047811	0.013071	
0.787000	0.333137	0.284341	-0.041170	-0.203000	0.000000	0.001500	-0.071302	0.024415	-0.096769	-9.036736	75.302681	-5.309189	-0.238112	0.000000	-0.603314	0.000003	-0.622792	-0.000000	0.157891	-1.129569	-0.384877	0.200000	0.000000	-0.300000	-0.029022	-0.015520	0.088396	
0.788000	0.101214	-0.390364	0.384196	-0.203000	0.000000	0.001500	0.090852	0.065807	-0.188752	-9.007787	75.779030	-4.997472	-0.238018	0.000000	-0.603612	0.000002	-0.593970	-0.000001	-0.040726	1.523551	0.238736	0.196233	0.000000	-0.369789	0.000000	0.028231	0.000000	
0.789000	0.121986	-0.677418	-0.154458	-0.203000	0.000000	0.001500	-0.040616	0.006638	0.064734	-8.826468	74.163689	-5.173504	-0.239767	0.000000	-0.603471	0.000005	-0.786509	-0.000001	-0.405392	-0.837281	-0.086876	0.200000	0.000000	-0.300000	-0.013247	0.069642	0.051335	
0.790000	-0.364376	-0.427964	0.066768	-0.203000	0.000000	0.001500	0.054858	0.069374	0.081021	-9.318888	74.160156	-5.247881	-0.238174	0.000000	-0.606081	-0.000000	-0.667880	-0.000001	-0.010542	1.335689	-0.096248	0.187802	0.000000	-0.373108	0.000000	0.030203	0.000000	
0.791000	-0.388722	-0.898327	-0.184028	-0.203000	0.000000	0.001500	0.116233	0.037838	0.060206	-8.642859	74.261871	-5.229031	-0.236422	0.000000	-0.604694	0.000002	-0.798631	-0.000001	-0.089236	0.290076	-0.198246	0.200000	0.000000	-0.300000	-0.160221	-0.024230	-0.152032	
0.792000	0.225513	0.613877	-0.295902	-0.203000	0.000000	0.001500	0.031060	0.045657	0.106155	-9.185494	75.301903	-4.975615	-0.236249	0.000000	-0.601879	0.000005	-0.727730	-0.000001	-0.093797	-0.256631	-0.350666	0.200000	0.000000	-0.300000	0.059821	0.081450	0.035564	
0.793000	0.618073	-0.316571	-0.517640	-0.203000	0.000000	0.001500	0.023772	-0.053879	-0.149798	-8.963317	75.881844	-5.025228	-0.239370	0.000000	-0.601650	0.000004	-0.732056	-0.000001	-0.093022	0.719121	-0.259415	0.200000	0.000000	-0.300000	-0.036920	-0.012958	-0.005841	
0.794000	-0.172717	-0.276235	-0.231987	-0.203000	0.000000	0.001500	0.043310	-0.028004	-0.006672	-9.109642	75.268173	-5.397929	-0.236756	0.000000	-0.604467	0.000004	-0.720487	-0.000001	-0.089097	0.849039	-0.195580	0.200000	0.000000	-0.300000	0.099637	0.032869	-0.104838	
0.795000	-0.059742	-2.440180	0.113590	-0.203000	0.000000	0.001500	0.126108	0.039099	-0.131644	-8.967701	75.560036	-5.036282	-0.236557	0.000000	-0.604212	-0.000000	-0.694702	-0.000000	-0.049194	2.021416	-0.340496	0.254980	0.000000	-0.362047	0.000000	0.023385	0.000000	
0.796000	0.265093	1.049019	0.312301	-0.163718	0.000000	0.009319	-0.000000	-0.089674	0.000000	-9.173652	75.268013	-4.703109	-0.236621	0.000000	-0.603422	-0.000001	-0.697478	-0.000001	0.327062	0.682015	-0.191530	0.200000	0.000000	-0.300000	0.014825	0.025747	0.115137	
0.797000	0.179030	-2.254817	-0.093255	-0.203000	0.000000	0.001500	-0.036753	0.020136	-0.003456	-8.854549	75.426308	-4.722331	-0.234903	0.000000	-0.602420	0.000004	-0.609002	-0.000001	0.037303	0.424161	-0.236807	0.200000	0.000000	-0.300000	-0.165683	0.087988	0.008676	
0.798000	0.223413	0.069233	-0.074727	-0.203000	0.000000	0.001500	0.024612	0.053217	0.054746	-8.990883	73.934357	-4.895344	-0.237719	0.000000	-0.603108	-0.000001	-0.708592	-0.000001	-0.399817	0.844823	0.078438	0.200000	0.000000	-0.300000	0.037760	0.052775	0.105895	
0.799000	-0.191473	0.607636	0.082097	-0.203000	0.000000	0.001500	-0.130531	0.035055	0.007731	-9.423336	75.234741	-4.998063	-0.236771	0.000000	-0.603857	0.000006	-0.554034	-0.000002	0.072085	-1.237999	-0.134557	0.200000	0.000000	-0.300000	-0.046096	0.017745	-0.064055	
0.800000	-0.280105	-0.290342	0.002727	-0.203000	0.000000	0.001500	-0.115589	0.016356	0.004230	-8.851607	75.337822	-5.234149	-0.234887	0.000000	-0.605365	0.000002	-0.611661	-0.000001	-0.122680	0.785498	-0.503101	0.200000	0.000000	-0.300000	0.008524	0.019177	0.034267	
0.801000	0.420609	0.492967	0.012751	-0.203000	0.000000	0.001500	0.044974	0.005582	-0.083430	-8.852857	76.411003	-5.130322	-0.236136	0.000000	-0.603613	0.000003	-0.678866	-0.000001	-0.335640	1.362625	-0.187708	0.211825	0.000000	-0.115107	-0.000000	-0.035603	0.000000	
0.802000	0.166540	1.479997	0.152838	-0.173591	0.000000	0.045713	0.000000	0.054159	-0.000000	-8.844133	77.288803	-5.677172	-0.235930	0.000000	-0.602798	0.000001	-0.688856	-0.000001	-0.076274	0.519004	-0.352372	0.200000	0.000000	-0.300000	-0.230417	0.055995	0.006774	
0.803000	-0.021284	-1.392418	-0.073615	-0.203000	0.000000	0.001500	0.210341	0.000673	-0.071329	-8.702644	76.348846	-5.315698	-0.238014	0.000000	-0.602354	0.000005	-0.723637	-0.000001	0.087214	-1.176064	-0.264722	0.200000	0.000000	-0.300000	-0.177454	-0.099412	0.024620	
0.804000	-0.146385	-0.970132	0.056646	-0.203000	0.000000	0.001500	0.118487	0.019300	-0.062576	-8.920548	76.573708	-4.966282	-0.238580	0.000000	-0.604825	-0.000001	-0.664031	-0.000001	0.071473	1.404392	-0.162618	0.219791	0.000000	-0.357077	0.000000	0.015780	0.000000	
0.805000	0.158173	0.133726	-0.269622	-0.203000	0.000000	0.001500	-0.070845	0.028190	-0.034488	-8.684779	75.626038	-4.808321	-0.235825	0.000000	-0.605182	0.000005	-0.705636	-0.000001	-0.073737	1.078459	0.035321	0.137452	0.000000	-0.257441	0.000000	-0.000320	0.000000	
0.806000	-0.016399	1.160055	-0.241915	-0.224261	0.000000	-0.165684	0.000000	-0.049661	-0.000000	-8.808100	76.014709	-4.938761	-0.234969	0.000000	-0.604042	0.000002	-0.669724	-0.000001	0.084254	1.173374	0.287992	0.199893	0.000000	-0.258584	0.000000	0.014249	0.000000	
